<?xml version="1.0" encoding="UTF-8"?>
<svg xmlns="http://www.w3.org/2000/svg" viewBox="0 0 837.22 761.14">
  <defs>
    <style>
      .cls-1, .cls-2, .cls-3, .cls-4 {
      stroke: #33312e;
      stroke-miterlimit: 10;
      }

      .cls-1, .cls-5 {
      fill: #e03fa9;
      }

      .cls-1, .cls-3, .cls-4 {
      stroke-width: 20px;
      }

      .cls-6, .cls-7, .cls-5 {
      mix-blend-mode: screen;
      }

      .cls-6, .cls-3 {
      fill: #8fe388;
      }

      .cls-8, .cls-2 {
      fill: #33312e;
      }

      .cls-9 {
      isolation: isolate;
      }

      .cls-7, .cls-4 {
      fill: #73d2de;
      }
    </style>
  </defs>
  <g class="cls-9">
    <g id="Layer_2" data-name="Layer 2">
      <g id="Layer_2-2" data-name="Layer 2">
        <g>
          <g>
            <polygon class="cls-8"
              points="166.45 511.93 326.24 252.9 339.75 260.8 192.35 527.08 166.45 511.93 166.45 511.93" />
            <ellipse class="cls-8" cx="179.75" cy="519.07" rx="14.32" ry="14.02" />
          </g>
          <path class="cls-2"
            d="m333.31,299.56l-41.75-23.01c-5.82-3.21-5.97-11.52-.27-14.93l43.44-26.06c5.86-3.51,13.28.86,13.04,7.69l-1.69,49.07c-.22,6.42-7.14,10.35-12.77,7.25Z" />
        </g>
        <g>
          <g>
            <polygon class="cls-8"
              points="511.05 245.51 657.08 512.59 643.53 520.42 485.08 260.52 511.05 245.51 511.05 245.51" />
            <ellipse class="cls-8" cx="498.27" cy="253.54" rx="14.7" ry="13.66"
              transform="translate(103.65 649.55) rotate(-72.07)" />
          </g>
          <path class="cls-2"
            d="m613.08,497.04l39.33-27.09c5.6-3.86,13.26,0,13.5,6.79l1.81,51.74c.24,6.83-7.18,11.2-13.04,7.69l-41.14-24.66c-5.38-3.22-5.62-10.93-.46-14.49Z" />
        </g>
        <g>
          <g>
            <polygon class="cls-8"
              points="568.36 677.72 270.83 673.84 270.65 658.19 568.03 647.72 568.36 677.72 568.36 677.72" />
            <ellipse class="cls-8" cx="567.65" cy="662.64" rx="13.68" ry="14.68"
              transform="translate(-194.71 238.23) rotate(-20.31)" />
          </g>
          <path class="cls-2"
            d="m305.8,642.98l2.95,48.72c.41,6.77-6.81,11.34-12.76,8.07l-44.34-24.41c-5.85-3.22-5.97-11.59-.21-14.98l41.38-24.3c5.55-3.26,12.57.49,12.96,6.91Z" />
        </g>
        <g>
          <ellipse class="cls-4" cx="102.51" cy="656.37" rx="92.51" ry="94.77" />
          <path class="cls-7"
            d="m165.86,609.01c7.63,10.69,13.41,28.97,5.44,37.06-3.3,3.35-9.34,5.35-13.96,3.4-7.49-3.16-3.76-13.56-11.91-25.58-8.83-13.02-21.67-13.32-21.79-21.79-.06-4.55,3.59-8.74,7.15-10.55,10.29-5.24,26.77,5.82,35.07,17.46Z" />
        </g>
        <path class="cls-5"
          d="m762.78,584.93c7.63,10.69,13.41,28.97,5.44,37.06-3.3,3.35-9.34,5.35-13.96,3.4-7.49-3.16-3.76-13.56-11.91-25.58-8.83-13.02-21.67-13.32-21.79-21.79-.06-4.55,3.59-8.74,7.15-10.55,10.29-5.24,26.77,5.82,35.07,17.46Z" />
        <g>
          <ellipse class="cls-1" cx="418.58" cy="104.77" rx="92.51" ry="94.77" />
          <path class="cls-5"
            d="m481.94,57.41c7.63,10.69,13.41,28.97,5.44,37.06-3.3,3.35-9.34,5.35-13.96,3.4-7.49-3.16-3.76-13.56-11.91-25.58-8.83-13.02-21.67-13.32-21.79-21.79-.06-4.55,3.59-8.74,7.15-10.55,10.29-5.24,26.77,5.82,35.07,17.46Z" />
        </g>
        <g>
          <ellipse class="cls-3" cx="734.71" cy="656.37" rx="92.51" ry="94.77" />
          <path class="cls-6"
            d="m798.06,609.01c7.63,10.69,13.41,28.97,5.44,37.06-3.3,3.35-9.34,5.35-13.96,3.4-7.49-3.16-3.76-13.56-11.91-25.58-8.83-13.02-21.67-13.32-21.79-21.79-.06-4.55,3.59-8.74,7.15-10.55,10.29-5.24,26.77,5.82,35.07,17.46Z" />
        </g>
      </g>
    </g>
  </g>
</svg>
